<?xml version="1.0" encoding="UTF-8" standalone="no"?>
<svg
   xmlns:dc="http://purl.org/dc/elements/1.1/"
   xmlns:cc="http://creativecommons.org/ns#"
   xmlns:rdf="http://www.w3.org/1999/02/22-rdf-syntax-ns#"
   xmlns:svg="http://www.w3.org/2000/svg"
   xmlns="http://www.w3.org/2000/svg"
   viewBox="0 0 2666.6667 2666.6667"
   height="2666.6667"
   width="2666.6667"
   xml:space="preserve"
   id="svg2"
   version="1.1"><metadata
     id="metadata8"><rdf:RDF><cc:Work
         rdf:about=""><dc:format>image/svg+xml</dc:format><dc:type
           rdf:resource="http://purl.org/dc/dcmitype/StillImage" /></cc:Work></rdf:RDF></metadata><defs
     id="defs6" /><g
     transform="matrix(1.3333333,0,0,-1.3333333,0,2666.6667)"
     id="g10"><g
       transform="scale(0.1)"
       id="g12"><g
         transform="scale(1.11304)"
         id="g14"><path
           id="path16"
           style="fill:#ffffff;fill-opacity:1;fill-rule:nonzero;stroke:none"
           d="m 8096.84,13310.1 c -147.26,0 -294.49,56.2 -406.79,168.6 -224.44,224.7 -224.26,588.7 0.4,813.2 l 1785.47,1783.7 c 224.61,224.4 588.68,224.2 813.18,-0.5 224.4,-224.6 224.2,-588.7 -0.5,-813.1 L 8503.22,13478.3 c -112.24,-112.1 -259.33,-168.2 -406.38,-168.2" /></g><path
         id="path18"
         style="fill:#ffffff;fill-opacity:1;fill-rule:nonzero;stroke:none"
         d="m 10997.4,12827.4 c -163.9,0 -327.8,62.6 -452.8,187.7 l -1985.24,1987.3 c -249.82,250 -249.62,655.3 0.44,905.1 250.05,249.8 655.27,249.6 905.1,-0.5 l 1985.3,-1987.2 c 249.8,-250.1 249.6,-655.3 -0.5,-905.1 -124.9,-124.8 -288.6,-187.3 -452.3,-187.3" /><g
         transform="scale(1.05053)"
         id="g20"><path
           id="path22"
           style="fill:#ffffff;fill-opacity:1;fill-rule:nonzero;stroke:none"
           d="m 9519.03,1827.65 c -915.16,0 -1803.27,179.34 -2639.66,533.17 C 6071.83,2702.36 5346.7,3191.16 4724.15,3813.8 4101.6,4436.34 3612.75,5161.41 3271.18,5969 c -353.76,836.34 -533.13,1724.47 -533.13,2639.63 0,973.13 201.94,1912.77 600.21,2792.87 384.6,850 931.16,1600 1624.51,2229.4 249.12,226.1 634.42,207.5 860.55,-41.7 226.14,-249.1 207.51,-634.4 -41.62,-860.5 -1159.96,-1052.9 -1825.21,-2554.6 -1825.21,-4120.07 0,-3067.22 2495.35,-5562.54 5562.54,-5562.54 3067.17,0 5562.57,2495.32 5562.57,5562.54 0,3067.17 -2495.4,5562.57 -5562.57,5562.57 -282.43,0 -566,-21.3 -842.84,-63.4 -332.59,-50.5 -643.26,178.2 -693.77,510.9 -50.52,332.6 178.19,643.2 510.84,693.7 337.19,51.3 682.3,77.2 1025.77,77.2 915.17,0 1803.27,-179.4 2639.67,-533.1 807.5,-341.6 1532.6,-830.4 2155.2,-1453 622.6,-622.5 1111.4,-1347.7 1452.9,-2155.2 353.9,-836.4 533.2,-1724.51 533.2,-2639.67 0,-915.16 -179.3,-1803.29 -533.2,-2639.63 -341.5,-807.59 -830.3,-1532.66 -1452.9,-2155.2 -622.6,-622.64 -1347.7,-1111.44 -2155.2,-1452.98 -836.4,-353.83 -1724.5,-533.17 -2639.67,-533.17" /></g></g></g></svg>